<svg width="14" height="15" viewBox="0 0 14 15" fill="none" xmlns="http://www.w3.org/2000/svg">
<path d="M6.38753 7.90836L5.5417 7.07711C5.43475 6.97016 5.30117 6.91669 5.14095 6.91669C4.98073 6.91669 4.84209 6.97502 4.72503 7.09169C4.61809 7.19863 4.56462 7.33474 4.56462 7.50002C4.56462 7.6653 4.61809 7.80141 4.72503 7.90836L5.9792 9.16252C6.09587 9.27919 6.23198 9.33752 6.38753 9.33752C6.54309 9.33752 6.6792 9.27919 6.79587 9.16252L9.27503 6.68336C9.3917 6.56669 9.4475 6.43058 9.44245 6.27502C9.43739 6.11947 9.38159 5.98336 9.27503 5.86669C9.15837 5.75002 9.01992 5.68936 8.8597 5.68469C8.69948 5.68002 8.56084 5.73583 8.44378 5.85211L6.38753 7.90836ZM4.7542 13.1875L3.90837 11.7584L2.3042 11.4084C2.15837 11.3792 2.0417 11.3039 1.9542 11.1826C1.8667 11.0613 1.83267 10.9275 1.85212 10.7813L2.01253 9.13336L0.918783 7.87919C0.82156 7.77224 0.772949 7.64586 0.772949 7.50002C0.772949 7.35419 0.82156 7.2278 0.918783 7.12086L2.01253 5.86669L1.85212 4.21877C1.83267 4.07294 1.8667 3.93916 1.9542 3.81744C2.0417 3.69572 2.15837 3.62047 2.3042 3.59169L3.90837 3.24169L4.7542 1.81252C4.83198 1.68613 4.93892 1.60097 5.07503 1.55702C5.21114 1.51308 5.34725 1.52047 5.48337 1.57919L7.00003 2.22086L8.5167 1.57919C8.65281 1.52086 8.78892 1.51347 8.92503 1.55702C9.06114 1.60058 9.16809 1.68575 9.24587 1.81252L10.0917 3.24169L11.6959 3.59169C11.8417 3.62086 11.9584 3.6963 12.0459 3.81802C12.1334 3.93975 12.1674 4.07333 12.1479 4.21877L11.9875 5.86669L13.0813 7.12086C13.1785 7.2278 13.2271 7.35419 13.2271 7.50002C13.2271 7.64586 13.1785 7.77224 13.0813 7.87919L11.9875 9.13336L12.1479 10.7813C12.1674 10.9271 12.1334 11.0609 12.0459 11.1826C11.9584 11.3043 11.8417 11.3796 11.6959 11.4084L10.0917 11.7584L9.24587 13.1875C9.16809 13.3139 9.06114 13.3991 8.92503 13.443C8.78892 13.487 8.65281 13.4796 8.5167 13.4209L7.00003 12.7792L5.48337 13.4209C5.34725 13.4792 5.21114 13.4866 5.07503 13.443C4.93892 13.3995 4.83198 13.3143 4.7542 13.1875Z" fill="#8098F9"/>
</svg>
